<svg xmlns="http://www.w3.org/2000/svg" preserveAspectRatio="xMinYMin" x="0px" y="0px" width="100%" height="100%" viewBox="0 0 307.17 75.46"><title>dreamworks</title><path d="M227.52,54.36c.5-.4,1.09-.82,1.74-1.25a2.82,2.82,0,0,1,1.67-.5v-.32h-3.2v.32l.46,0c.32,0,.19.19,0,.34-.69.62-1.42,1.23-2.29,1.9V53.6c0-.88.1-.94.88-1v-.32h-3.72v.32c.83,0,.93.11.93,1v2.71c0,.88-.1.94-.87,1v.32h3.72v-.32c-.85,0-1-.1-.94-1V55h0c.87.9,2,2.1,2.46,2.62h2.75v-.32c-.49,0-.71-.12-1.35-.71S228.26,55.14,227.52,54.36ZM112.2,37.26a5.82,5.82,0,0,0-.87-3c1.11.21,1.27.76,1.27,2.64v7.58c0,2.48-.29,2.64-2.82,2.78v.9h11.28v-.9c-2.46-.14-2.75-.3-2.75-2.78V41.76h.47a1.75,1.75,0,0,1,1.5.83,22.85,22.85,0,0,0,3,3.7c1.43,1.33,2.6,2,7.67,2.09l1.54,0,0-.21h15.9v0h4.42v-.89l-1-.07c-1.64-.12-1.64-.34-1.17-1.33l1.07-2.2h5.86L158.79,46c.46.83.39,1.05-.93,1.17l-1.07.1v.89h6.56v0h8.82v-.9c-2.32-.11-3.11-.32-3.25-1.17a16.49,16.49,0,0,1-.07-3.8l.25-5.1h.07l6.54,10.71h1.93l6.89-11.51h.14l.1,8.09c0,2.55-.07,2.62-2.75,2.78v.9h11.17v-.9c-2.57-.16-2.64-.22-2.75-2.78l-.36-7.7c-.09-2,0-2.41,1.62-2.58l7.54,14.17h3.91L210,35.94h.1l7.46,12.46h3.91c1.71-3.58,3.4-6.9,4.79-9.57a5.86,5.86,0,0,0-.4,2.1c0,4.23,4.68,7.61,11.89,7.61,6.78,0,11.95-3,12.06-7.85v3.83c0,2.49-.28,2.64-2.82,2.78v.9h11.28v-.9c-2.46-.13-2.75-.29-2.75-2.78V41.75H256a1.75,1.75,0,0,1,1.5.82,23.16,23.16,0,0,0,3,3.7c1.43,1.33,2.61,2,7.68,2.09l1.54,0,0-.21h9.71v-.9c-2.54-.14-2.82-.3-2.82-2.78V40.83h.07c2.6,2.5,6,5.88,7.35,7.35h8.21v-.55c.44.13,1.13.3,2.09.5a19.78,19.78,0,0,0,3.85.39c5.54,0,9.07-2.07,9.07-4.89s-2.82-3.86-6.11-4.83l-.78-.23c-2.28-.67-3.68-1.33-3.68-2.48s1.29-2,3.11-2a5.08,5.08,0,0,1,4.85,3.15l1.57-.16c-.39-1.56-.64-2.69-.78-3.58-.46-.09-1-.18-1.86-.32a19.17,19.17,0,0,0-3.28-.28c-5.6,0-8.53,2.12-8.53,4.71s3.32,3.65,6.25,4.52l.54.16c2.18.64,3.57,1.4,3.57,2.76s-1.43,2.28-3.28,2.28a7.5,7.5,0,0,1-6.35-3.88l-1.57.3c.39,1.39.79,2.52,1.08,3.51-1.29-.13-2-.42-3.78-2-2.25-1.93-4.6-4-6.82-6.22,1.5-1.13,3.29-2.3,5.21-3.5a8.79,8.79,0,0,1,5-1.42v-.9H282v.9l1.35.09c1,.07.58.53.08.94-2.07,1.75-4.25,3.45-6.86,5.33V36.93c0-2.48.29-2.64,2.64-2.78v-.9H268v.9c2.5.14,2.78.3,2.78,2.78v7.58c0,2.3-.27,2.61-2.17,2.75a5.48,5.48,0,0,1-1.06-.64c-.57-.46-1.36-1.24-2.57-2.45-1-1.06-2.36-2.64-2.86-3.28,2.64-.67,4.6-1.86,4.6-3.89,0-1.36-1.07-2.39-2.5-3a16.17,16.17,0,0,0-6-.78H247.1v.9c2.39.14,2.68.3,2.68,2.78V40.4c-.11-4.47-5.1-7.49-11.56-7.49-6,0-9.64,2.11-11.32,4.65,1.56-3,2.63-4.88,2.76-5.08,1.72-2.7,2.18-2.8,5-3v-1.2H222.56v1.2l1.93.12c2.18.16,2.33.46,1.67,2.21s-2.59,6.14-4.36,9.73h-.1L214,28.42h-3.55l-6.65,13.08h-.1l-4.82-10.31c-.61-1.26-.46-1.47,1.42-1.63l1.63-.12v-1.2H186.06v1.2c2.33.18,3.25.3,4.62,2.86l.52,1h-7l-5.46,9.1-6.25-9.1h-8.39v.9c2.82.16,3.11.41,2.86,3.3l-.39,4.64a26.08,26.08,0,0,1-.57,4,1.35,1.35,0,0,1-.25.52A5.27,5.27,0,0,1,164.47,45c-1.36-2.35-2.9-5.05-4.43-7.79l-2.43-4.35-2.46.33-7,11.57a9.79,9.79,0,0,1-1.9,1.52,7.55,7.55,0,0,1-3.79.69,9,9,0,0,1-2.5-.21c-.64-.21-.72-.78-.72-2V41.07h1.79c3.07,0,3.18.14,3.53,2.16h1.57V37.81h-1.57c-.36,1.74-.47,1.89-3.53,1.89H139.3V35.25c0-.8.07-.8,1.43-.8h.61c1.89,0,3.07.14,3.64.53a3.64,3.64,0,0,1,1.32,2.14l1.57-.07c-.18-1.73-.36-3.4-.39-3.79H130.56v.89c2.39.14,2.68.3,2.68,2.78v7.58c0,2.07-.2,2.52-1.88,2.7a5.65,5.65,0,0,1-.94-.59c-.57-.46-1.36-1.24-2.57-2.46-1-1.06-2.36-2.64-2.86-3.28,2.64-.67,4.61-1.86,4.61-3.88,0-1.35-1.07-2.39-2.5-3a16.24,16.24,0,0,0-6-.78H110.58A10.42,10.42,0,0,0,107.83,31c-3.4-2-8.58-2.73-14.82-2.73H78.19v1.2c3.3.18,3.71.4,3.71,3.71V43.28c0,3.31-.41,3.53-4.11,3.71v1.2H90.88C102.61,48.19,112.2,44.91,112.2,37.26Zm143.3-1.88c0-.92.11-1,1.61-1s3.57.74,3.57,2.94a3.19,3.19,0,0,1-2,2.94,6.36,6.36,0,0,1-2.68.39h-.5Zm-18-1.28c3.07,0,5.64,2.55,5.64,7.17,0,4.16-1.68,6.07-4.75,6.07-3.5,0-5.93-3-5.93-7.19S234.76,34.1,237.5,34.1Zm-83,3.8h.11l2.25,4.38h-4.57ZM118.31,35.4c0-.92.11-1,1.61-1s3.57.74,3.57,2.94a3.18,3.18,0,0,1-2,2.94,6.3,6.3,0,0,1-2.68.39h-.5ZM90.52,31.53c0-.77.05-1.48.3-1.54A7.4,7.4,0,0,1,93,29.78c4.31,0,9.84,1.84,9.84,8.44,0,5.44-4.42,8.35-8.78,8.35-2.44,0-3.55-.52-3.55-3.25ZM234.94,55.4c1.25.06,1.3.12,1.3.67v.79c0,.39-.19.45-.49.45a2.32,2.32,0,0,1-2.44-2.46,2.21,2.21,0,0,1,2.32-2.26,2,2,0,0,1,2.12,1.3l.53,0c-.09-.79-.15-1.22-.19-1.5a14.51,14.51,0,0,0-2.28-.21c-2.54,0-4.72,1-4.72,2.84,0,1.67,1.7,2.73,4.55,2.73a14.71,14.71,0,0,0,2.7-.33,2.62,2.62,0,0,1-.07-.75v-.59c0-.57,0-.6.66-.67V55h-4Zm5,0h67v-.53h-67Zm-39.31-3.21c-3.06,0-4.44,1.53-4.44,2.85,0,1.5,1.67,2.7,4.26,2.7s4.33-1.09,4.33-2.84S203,52.17,200.61,52.17Zm.07,5.13a2.28,2.28,0,0,1-2.12-2.56c0-1.43.82-2.15,1.8-2.15s2,.91,2,2.55C202.38,56.62,201.77,57.29,200.67,57.29Zm39.4-4.4h.3V51.26h.74V51h-1.77v.22h.74Zm3.1-1.09v1.09h.28V51H243l-.62,1.57L241.78,51h-.42v1.85h.28V51.8s0-.11,0-.21,0-.16,0-.2v-.06l.63,1.56h.29l.63-1.56c0,.1,0,.19,0,.28S243.17,51.76,243.17,51.8Zm-32.41.82c.84,0,1.19.13,1.25.42a8,8,0,0,1,.11,1.56v1.09h0l-4.26-3.39H205v.32a1.58,1.58,0,0,1,1,.25c.26.22.28.33.28.94v1.5a8.15,8.15,0,0,1-.1,1.56c-.06.29-.4.4-1,.42v.32h3.19v-.32c-.84,0-1.19-.13-1.25-.42a8.16,8.16,0,0,1-.1-1.56V53.8h0l4.74,3.85h1.1V54.58A7.78,7.78,0,0,1,213,53c.06-.29.39-.4,1-.42v-.32h-3.27Zm-20.82-.32h-6.2c0,.39-.09.88-.13,1.46h.54a1.72,1.72,0,0,1,.47-.79,2.45,2.45,0,0,1,1.41-.24h.22V56.3c0,.85-.1.93-1.06,1a1.22,1.22,0,0,1-1.25-.8c-.49-.83-1-1.79-1.59-2.77l-.87-1.54-.89.12L178,56.5a1.22,1.22,0,0,1-1.23.77c-.87-.06-.9-.1-.94-1l-.13-2.73c0-.86,0-.89,1-.95v-.32h-3.11l-2,3.23-2.24-3.23h-3v.32c1,.06,1.12.14,1,1.18l-.14,1.65a9.13,9.13,0,0,1-.21,1.43c-.08.3-.32.38-.93.42v.32h3.16v-.32c-.83,0-1.11-.12-1.16-.42a5.84,5.84,0,0,1,0-1.35l.09-1.81h0l2.35,3.8h.69l2.47-4.09h.05l0,2.87c0,.91,0,.93-1,1v.32h6.91v-.32l-.37,0c-.59,0-.6-.12-.43-.47l.39-.78h2.1l.46.83c.17.3.14.38-.33.42l-.38,0v.32h8.41v-.31c-1.07-.05-1.18-.11-1.18-1V52.72h.31a2.52,2.52,0,0,1,1.25.2,1.73,1.73,0,0,1,.52.84l.56,0c-.05-.51-.1-1.07-.13-1.45Zm-10.37,3.22.79-1.56h0l.81,1.56Zm11.92-2.9c.88,0,1,.11,1,1v2.69c0,.88-.1.94-1,1v.32h4.15v-.32c-.89-.05-1-.1-1-1V53.6c0-.88.1-.94,1-1v-.32H191.5Zm28.79,1.66-.26-.08c-.78-.23-1.23-.47-1.23-.88s.43-.71,1-.71a1.71,1.71,0,0,1,1.62,1.12l.53-.06c-.13-.56-.22-1-.27-1.28l-.62-.11a6.05,6.05,0,0,0-1.1-.1c-1.87,0-2.85.75-2.85,1.68s1.1,1.31,2.08,1.62l.18.05c.74.21,1.2.5,1.2,1s-.48.82-1.1.82a2.5,2.5,0,0,1-2.12-1.38l-.53.1c.14.55.3,1,.39,1.37.15,0,.39.12.75.2a6,6,0,0,0,1.29.14c1.85,0,3-.74,3-1.75S221.39,54.61,220.29,54.27ZM77.08,55.38h67v-.53h-67Zm74.29,1.1c-.49-.83-1-1.79-1.58-2.77l-.87-1.54-.88.12-2.56,4.22a1.23,1.23,0,0,1-1.27.78v.32h3v-.32l-.37,0c-.59,0-.6-.12-.42-.47l.38-.78h2.1l.46.83c.17.3.14.38-.33.42l-.38,0v.32h4v-.32A1.23,1.23,0,0,1,151.37,56.48Zm-4.38-1,.79-1.56h0l.81,1.56Zm11.38-2.9c.84,0,1.19.13,1.26.42a8.33,8.33,0,0,1,.1,1.56v1.09h0l-4.26-3.39h-2.83v.32a1.59,1.59,0,0,1,1,.25c.25.22.28.33.28.94v1.5a8.15,8.15,0,0,1-.1,1.56c-.06.29-.4.4-1,.42v.32H156v-.32c-.84,0-1.19-.13-1.25-.42a8.14,8.14,0,0,1-.1-1.56V53.8h0l4.73,3.85h1.11V54.58a8.6,8.6,0,0,1,.1-1.56c.07-.29.4-.4,1-.42.87,0,1,.11,1,1v2.69c0,.88-.1.94-1,1v.32h4.15v-.32c-.88-.05-1-.1-1-1V53.6c0-.88.11-.94,1-1v-.32h-7.4Z" style="fill:#fff"/><path d="M68.91,17.49C63.67,6.25,49.9-2.71,34.62.76c9.16,1,18.73,7,22.7,15.66a28.78,28.78,0,0,1,2,17.84A27.24,27.24,0,0,1,54.8,45.61a10.08,10.08,0,0,0-.37-3.94c-.13-2.79-2-4-2.6-4,.19-.33.62-1.17.62-1.17a2.86,2.86,0,0,0-1.32.22.89.89,0,0,1,0-.39.87.87,0,0,0,.92-.56,1.71,1.71,0,0,1-.07.33c1-.77.74-3.12.57-3.84-.37-1.6-.86-1.87-1.33-1.78,0-.21.55-.49.81-.51-.17-.24-.64-.12-.9,0,.21-.38-.22-1-.73-.94.92.26.42,1.24.42,1.24.38-1.24-2.09-1.17-3.67-.82-.85.19-4.05,1.33-4.36,4a4.16,4.16,0,0,1,.38-.56,1.53,1.53,0,0,0,0,1.29s.21-.51.64-.56c-.19.23-.08.89.12,1.25s.15.68-.06.82-.43.41-.41.63.29.26.41.31.38.35.09.46a.36.36,0,0,0,.34.26c-.11.15-.07.41.14.38s.32.18.2.51.31.76.89.46c.19-.09,1.14-.53,1.06-.24s-.07,1-.32,1.09-.4.48-.58.63-.3.51-.72.63a6.61,6.61,0,0,1-1.9.65c-1,.11-.52.64-1.1.46a2.53,2.53,0,0,0-2.11-.92c-1.3,0-1.41.14-1.76.67-.67,0-3.75.05-4.42-.61,0-.24-.28-1.41-1-1.64S31.39,38.39,31.54,38c-.61-.07-.8.32-.66,1a4.14,4.14,0,0,0-.43.13C23.35,30.73,8.17,18.95,0,18V19a4.4,4.4,0,0,1,.49,0V75.46h1V19.25c6.26,1.58,20.76,11.71,28,20.14a.49.49,0,0,0,.19.84c.52.23.42.28.85.94.6.93.42,1.27,1.27,1.26a15.27,15.27,0,0,1,1.35,2.47,1.06,1.06,0,0,0-.44.2.8.8,0,0,0-.43.56c-.09.33.38.31.52.61a12.64,12.64,0,0,1,.38,1.31c.12.4.45.48,1,.33.1.27.22.59.24.68s.93.29.74-.35c-.07-.23-.15-.45-.21-.62a1.52,1.52,0,0,1,.77-.29,3.65,3.65,0,0,0,.62,0,20,20,0,0,1-.73,2.38c-.69,0-.93,0-1,.26a9.93,9.93,0,0,0-.35,2c0,.68.3.49.69.64.67.24.73.2.72.3a3.61,3.61,0,0,1-.3,1.17,4.36,4.36,0,0,1-1.94,2,17.08,17.08,0,0,1-2.17,1,1.36,1.36,0,0,1-1.1.25c-.56-.16-.38-.38-.64-.24-.76.43.16,1.13.16,1.13l.21.05a25.1,25.1,0,0,1-9-2.9,38.76,38.76,0,0,0,8.76,5.51c1.56.68,2.88,1.2,3.24,1.33l-.32,0a11.44,11.44,0,0,1-.79,1c-.38.42-.5.64-.23.79s.5.34,1.07.72a13.34,13.34,0,0,1-1.23,3.13,9.82,9.82,0,0,1-1.33,2.12c-.41.41-1.38,1.24-2,1.85a4.11,4.11,0,0,1-1.74,1.13c-.76.13-1-.45-1.1-.3-.47.64-.22,1.3.65,1.42.29,0,.46.33,1,.57a2.47,2.47,0,0,0,1.79-.19c.45-.23,1.44-.82,2.17-1.19a5.74,5.74,0,0,1,2.31-.42c.7-.06.77-1.24.52-1.82-.37-.87-.09-1.51.35-2.55a8.65,8.65,0,0,1,1.58-2.16s.3-.15.81.21.59-.21,1.22-1,1.05-1.27.74-1.56-.29-.5-.29-.5.2-.25.45-.51A34,34,0,0,0,65.68,50.6C73.59,39.89,74,28.44,68.91,17.49ZM46.44,45.4a4.85,4.85,0,0,1,.34,2c-.12.8,0,1-.29,1.35a22.15,22.15,0,0,1-1.85-2.84Zm-8.19,8.23,1.26.27c.44.09.48.19.58-.06s.46-2.16.56-2.49-.42-.35-.42-.35,0,.27,0-.51a11.92,11.92,0,0,1,.23-2.17c.19-.08.36,1.17.36,1.17a24.59,24.59,0,0,0,1.21,3.78c.3.45.3.62.3.62-.86.42-2.12.73-2.57.92a10.11,10.11,0,0,1-1.55.83A5.5,5.5,0,0,1,38.25,53.62Zm-2.73-8.06a3.14,3.14,0,0,1-.51-.75c-.18-.35-.48-.84-1-.37h0a11.51,11.51,0,0,0-1-1.88c.43.18,1,.51,1.64.85a8.72,8.72,0,0,0,2.33.8l-.34,1.36C36.28,45.63,35.69,45.77,35.52,45.56Z" style="fill:#fff"/></svg>